<svg width="128" height="128" viewBox="0 0 128 128" fill="none" xmlns="http://www.w3.org/2000/svg">
<path d="M35.84 54.4463L60.8466 54.271L46.6432 70.754L61.1973 82.1517L35.84 92.4974V54.4463Z" fill="#F2B94E"/>
<path d="M53.4822 14.0282C43.9621 14.0282 35.8398 21.6921 35.8398 31.2122V48.3969H59.516V36.025C59.516 33.652 61.4266 31.7421 63.7996 31.7421H66.0923C68.4653 31.7421 70.3759 33.652 70.3759 36.025V48.3969H93.2861V31.2122C93.2861 21.6921 85.2716 14.0282 75.7515 14.0282H53.4822ZM93.2861 74.6991C93.2861 74.6991 82.5235 79.0894 70.3759 84.0899V94.4099C70.3759 96.7829 68.4653 98.6935 66.0923 98.6935H63.7996C61.4266 98.6935 59.516 96.7829 59.516 94.4099V88.5713C47.0242 93.7469 35.8449 98.4533 35.8398 98.7226C35.6714 107.537 44.6478 114.504 55.6736 114.504H73.3842C84.41 114.504 93.2861 105.628 93.2861 94.6018V74.6991Z" fill="#E5E5E5"/>
</svg>
