<svg width="144" height="180" viewBox="0 0 144 180" fill="none" xmlns="http://www.w3.org/2000/svg">
<rect width="143.229" height="179.036" rx="10" fill="#54555F" fill-opacity="0.25"/>
<rect x="18.6198" y="54.4271" width="21.4844" height="21.4844" rx="5" fill="#9A98B3" fill-opacity="0.25"/>
<rect x="47.2656" y="54.4271" width="21.4844" height="21.4844" rx="5" fill="#EEEDFF" fill-opacity="0.5"/>
<rect x="75.9114" y="54.4271" width="21.4844" height="21.4844" rx="5" fill="#9A98B3" fill-opacity="0.25"/>
<rect x="104.557" y="54.4271" width="21.4844" height="21.4844" rx="5" fill="#EEEDFF" fill-opacity="0.5"/>
<rect x="18.6198" y="83.0729" width="21.4844" height="21.4844" rx="5" fill="#EEEDFF" fill-opacity="0.5"/>
<rect x="47.2656" y="83.0729" width="21.4844" height="21.4844" rx="5" fill="#9A98B3" fill-opacity="0.25"/>
<rect x="75.9114" y="83.0729" width="21.4844" height="21.4844" rx="5" fill="#EEEDFF" fill-opacity="0.5"/>
<rect x="104.557" y="83.0729" width="21.4844" height="21.4844" rx="5" fill="#9A98B3" fill-opacity="0.25"/>
<rect x="18.6198" y="111.719" width="21.4844" height="21.4844" rx="5" fill="#9A98B3" fill-opacity="0.25"/>
<rect x="18.6198" y="140.365" width="21.4844" height="21.4844" rx="5" fill="#9A98B3" fill-opacity="0.25"/>
<rect x="47.2656" y="111.719" width="21.4844" height="21.4844" rx="5" fill="#9A98B3" fill-opacity="0.25"/>
<rect x="47.2656" y="140.365" width="21.4844" height="21.4844" rx="5" fill="#9A98B3" fill-opacity="0.25"/>
<rect x="75.9114" y="111.719" width="21.4844" height="21.4844" rx="5" fill="#9A98B3" fill-opacity="0.25"/>
<rect x="75.9114" y="140.365" width="21.4844" height="21.4844" rx="5" fill="#9A98B3" fill-opacity="0.25"/>
<rect x="104.557" y="111.719" width="21.4844" height="21.4844" rx="5" fill="#9A98B3" fill-opacity="0.25"/>
<rect x="104.557" y="140.365" width="21.4844" height="21.4844" rx="5" fill="#9A98B3" fill-opacity="0.25"/>
<path d="M57.303 24.1583V27.7333C57.303 29.9 56.7614 31.6083 55.678 32.8583C54.5947 34.0917 53.0114 34.7083 50.928 34.7083C48.828 34.7083 47.2364 34.0917 46.153 32.8583C45.0864 31.6083 44.553 29.9 44.553 27.7333V24.1583C44.553 21.9917 45.0864 20.2917 46.153 19.0583C47.2364 17.825 48.828 17.2083 50.928 17.2083C53.0114 17.2083 54.5947 17.825 55.678 19.0583C56.7614 20.2917 57.303 21.9917 57.303 24.1583ZM54.228 24.1583C54.228 22.7917 53.9614 21.7667 53.428 21.0833C52.8947 20.3833 52.0614 20.0333 50.928 20.0333C49.7947 20.0333 48.9614 20.3833 48.428 21.0833C47.8947 21.7667 47.628 22.7917 47.628 24.1583V27.7333C47.628 29.1 47.8947 30.1333 48.428 30.8333C48.9614 31.5333 49.7947 31.8833 50.928 31.8833C52.0614 31.8833 52.8947 31.5333 53.428 30.8333C53.9614 30.1333 54.228 29.1 54.228 27.7333V24.1583ZM67.0942 24.2083C66.6776 24.2083 66.2026 24.3083 65.6692 24.5083C65.1359 24.7083 64.5026 25.1 63.7692 25.6833V34.4583H60.8942V21.7833H63.6192V23.4833C64.4026 22.8 65.1442 22.3083 65.8442 22.0083C66.5442 21.6917 67.2526 21.5333 67.9692 21.5333C69.1859 21.5333 70.1109 21.925 70.7442 22.7083C71.3776 23.475 71.6942 24.5583 71.6942 25.9583V34.4583H68.8192V26.3083C68.8192 24.9083 68.2442 24.2083 67.0942 24.2083ZM82.9188 34.4583V32.7333C82.1522 33.5 81.4855 34.025 80.9188 34.3083C80.3688 34.575 79.7938 34.7083 79.1938 34.7083C77.8272 34.7083 76.7605 34.1917 75.9938 33.1583C75.2438 32.125 74.8688 30.675 74.8688 28.8083V27.4583C74.8688 25.6417 75.3272 24.2 76.2438 23.1333C77.1605 22.0667 78.4855 21.5333 80.2188 21.5333C80.6522 21.5333 81.0772 21.575 81.4938 21.6583C81.9272 21.7417 82.3522 21.8583 82.7688 22.0083V15.9583H85.6438V34.4583H82.9188ZM77.8188 28.8083C77.8188 29.925 78.0022 30.7417 78.3688 31.2583C78.7522 31.775 79.2855 32.0333 79.9688 32.0333C80.3522 32.0333 80.7605 31.925 81.1938 31.7083C81.6272 31.475 82.1522 31.0417 82.7688 30.4083V24.6083C81.9522 24.275 81.2022 24.1083 80.5188 24.1083C79.5522 24.1083 78.8605 24.4083 78.4438 25.0083C78.0272 25.6083 77.8188 26.425 77.8188 27.4583V28.8083ZM99.2052 34.5833C98.3552 34.5833 97.6718 34.4083 97.1552 34.0583C96.6552 33.7083 96.2885 33.275 96.0552 32.7583C95.3385 33.425 94.6468 33.9167 93.9802 34.2333C93.3135 34.55 92.5968 34.7083 91.8302 34.7083C90.7135 34.7083 89.8885 34.35 89.3552 33.6333C88.8385 32.9167 88.5802 32.0083 88.5802 30.9083C88.5802 30.175 88.7135 29.5333 88.9802 28.9833C89.2635 28.4167 89.7218 27.975 90.3552 27.6583C90.9885 27.3417 91.8552 27.1833 92.9552 27.1833C93.3885 27.1833 93.8385 27.2167 94.3052 27.2833C94.7718 27.3333 95.2385 27.4 95.7052 27.4833V26.0083C95.7052 25.3083 95.5135 24.8333 95.1302 24.5833C94.7468 24.3167 94.2302 24.1833 93.5802 24.1833C93.0802 24.1833 92.5302 24.25 91.9302 24.3833C91.3468 24.5167 90.7135 24.725 90.0302 25.0083L89.2052 22.5583C90.8885 21.875 92.4135 21.5333 93.7802 21.5333C95.0135 21.5333 95.9635 21.7417 96.6302 22.1583C97.3135 22.575 97.7885 23.125 98.0552 23.8083C98.3218 24.4917 98.4552 25.225 98.4552 26.0083V30.8833C98.4552 31.1333 98.5218 31.375 98.6552 31.6083C98.8052 31.825 99.0885 31.9333 99.5052 31.9333H99.7802V34.5833H99.2052ZM91.3552 30.8583C91.3552 31.3083 91.4552 31.6667 91.6552 31.9333C91.8552 32.1833 92.1468 32.3083 92.5302 32.3083C92.9135 32.3083 93.3468 32.2083 93.8302 32.0083C94.3135 31.8083 94.9385 31.3417 95.7052 30.6083V29.5333C94.8385 29.3833 93.9885 29.3083 93.1552 29.3083C92.5052 29.3083 92.0385 29.4417 91.7552 29.7083C91.4885 29.975 91.3552 30.3583 91.3552 30.8583Z" fill="white"/>
<path d="M29 95L54.0816 66.0264C56.1224 63.6689 59.7996 63.734 61.7557 66.1623L83.3011 92.9083C85.2381 95.3128 88.8699 95.4044 90.9256 93.1006L116 65" stroke="#A61717" stroke-width="7" stroke-linecap="round"/>
</svg>
